<svg version="1.2" xmlns="http://www.w3.org/2000/svg" viewBox="0 0 512 512" width="512" height="512">
	<title>light-thorny-triskelion-svg</title>
	<style>
		.s0 { fill: #FFFFFF } 
		.s1 { fill: #ff0000;stroke: #0b550d;stroke-linecap: round;stroke-linejoin: bevel;stroke-width: 10 } 
	</style>
	<g id="Layer">
		<path id="Layer" class="s0" d="m182.3 27.8c-41.7 1.5-72 12.6-87.1 33.5-15 20.8-19 42.1-14.5 60.7l-28.9 37.8 44.2-9.8c9 9.9 21.4 17.9 36.5 22.9 6.8 2.3 14.5 2.7 22.7 1.7l27.2 35.2 1.9-44.2c11.9-5.6 23.9-13.3 34.7-22.4 26.5-22.4 49.6-22.4 71.4 1 8 8.6 13.1 22.3 14 39.4l-41.3 5.5 38.7 24.7c-2.9 13.8-8.2 28.8-16.3 44.4-7 9.8-17.6 11.7-29 14.3-26.7 5.5-44.8 17.7-56.8 34.3l-40.3-9 27 35.4c-5.5 16.5-8 35.1-8.6 54.7-0.8 22.9-8.4 38.9-21.4 49.2l-23.7-30.7-1.8 42.4q-5.7 1.3-11.9 2.1c-32.6 3.7-53.2-13.5-57.9-43.6l42.3-17.6-41.6-13.1c8.3-36.6 45.2-44.2 84.5-14.9-10.2-30.1-37.8-46.6-64.2-43.1l-34.7-30.7 6.3 43.1c-16.9 13.6-28.3 37.4-27 68.4 1.1 25 9 44.5 22 58.5l-5.6 43.5 28.9-26.5c14 6.7 30.7 9.9 49.1 9.5 28.8-0.6 50.4-11.3 65.3-28.5l44.1 9.8-28.1-36.8c4.9-12.4 7.9-26.2 8.9-41 3-42.1 11-67 49.7-81.2 22.4-4.8 31.5 11.1 44 25.1 11.8 14.2 24.7 26.7 38.4 36.6l-6 46.3 33.5-30.7c28.6 11.8 59.3 10.6 88.8-11.5l41.8 17.1-21.6-41.4c15.3-31.9 7.4-78.6-23.7-116.1l18.2-34.8-36.3 14.9c-25.8-31-33.7-64.4-31.6-98.4l36.5-1.6-32.9-25.4c3.8-19.1 10.1-38.3 17.6-57.2-36.8 33.4-53.9 87.6-45.1 138.6l-27 20.9 32.7 1.4c6.9 20.5 18.5 39.8 35.2 56.2 10.9 10.9 18.4 21.9 23 32.6l-39 24.7 44.6 6c-1.1 13.2-6.8 24.3-15.6 31.4-36.1 29.5-71.7 4.1-99.8-24.9-11.3-14.4-29.3-23.8-19.7-45.5q0.7-1.5 1.4-3 0.5-0.9 1-1.8 1.1-1.8 1.5-3.6c22.6-50.2 21.6-97.1 2.6-128.7l20.6-39.5-40 16.5c-18.2-15.8-38.3-20-58.8-15.9l-28.9-33.9 0.3 44.4c-6.6 3.5-13.2 7.7-19.7 12.5-23.1 16.8-39.8 25-52.5 19.9-28.4-11.5-35.1-30.5-29.7-49.7l41.9 9.4-27.1-35.6c13.6-16.2 33.6-29.5 52.7-34.2z"/>
	</g>
	<path id="2" class="s1" d="m166 402h213.3l-0.1-69-150 11.3q8-9.8 19.3-19.6 11.5-9.7 22.7-17.2 11.5-7.8 24-16.3 12.8-8.4 23.8-15.9 11.2-7.5 21.5-17 10.2-9.5 17.5-19 7.5-9.8 11.7-22.3 4.5-12.7 4.5-26.8 0-19.2-5.7-33.9-5.8-15-15.5-24.5-9.8-9.5-23.8-15.8-13.7-6.2-28.7-8.7-15-2.5-32.5-2.5-77 0-104.3 41.2l3.8 58.8 45.5 0.2 12-51.5q11.2-3.5 27.5-3.5 19.2 0 29 19.8 5.5 11 5.5 23.2 0 21.3-17.3 43.3-17.2 22-57.7 55.2-48.8 38-48.8 73.8 0 30.2 1.3 33.7z"/>
</svg>