<svg version="1.2" xmlns="http://www.w3.org/2000/svg" viewBox="0 0 512 512" width="512" height="512">
	<title>poison-bottle-svg</title>
	<style>
		.s0 { fill: #000000 } 
		.s1 { fill: #ff0000;stroke: #0b550d;stroke-linecap: round;stroke-linejoin: bevel;stroke-width: 10 } 
	</style>
	<g id="Layer">
		<path id="Layer" fill-rule="evenodd" class="s0" d="m331.2 33v51.5h-149.4v-51.5zm-116.2 70.2c-0.9 6.3-2.7 12.4-6.6 17.8-6.6 9.3-18.7 14.4-34.7 14.4-18.1 0-33.7 5.1-44.3 12.7-10.6 7.5-16.1 17-16.1 27.2v251.4c0 22.4 17.6 40 39.9 40h213.5c22.4 0 39.9-17.6 39.9-40v-251.4c0-10.2-5.5-19.7-15.9-27.3-10.4-7.6-25.4-12.6-42.4-12.6-19.4 0-32.8-4.3-40.9-13.5-4.9-5.5-7.2-12-8.3-18.7h19.1c0.8 2.7 1.8 4.8 3.2 6.4 3.3 3.7 10.2 7.1 26.9 7.1 20.6 0 39.3 6 53.4 16.2 14.1 10.2 23.6 25.3 23.6 42.4v251.4c0 32.4-26.2 58.7-58.6 58.7h-213.5c-32.3 0-58.6-26.3-58.6-58.7v-251.4c0-17.1 9.6-32.2 24-42.5 14.3-10.2 33.6-16.1 55.1-16.1 12.5 0.1 16.8-2.8 19.5-6.5 1.2-1.7 2.1-4.1 2.8-7 0 0 19 0 19 0zm110.5 78.7c12.2 18.4 18.2 42.5 19 65-25.4 12.3-39.9 28-44.4 45.5-0.8 3.4-1.3 6.7-1.4 10-10.1 4.4-23.2 6.9-36.1 6.9-14.6 0-28.8-3.3-37.9-8.4q-0.2-4.5-1.3-8.9c-4.3-17.4-18.8-32.2-43.8-45 0.8-23.7 6.9-48 19.2-66.1 13.2-19.4 32.7-32.3 63.3-32.3 30.7 0 50.2 13.5 63.4 33.3zm-109.9 58.2c0 9.1 7.4 16.6 16.6 16.6 9.1 0 16.6-7.5 16.6-16.6 0-9.2-7.5-16.6-16.6-16.6-9.2 0-16.6 7.4-16.6 16.6zm55.5 0c0 9.1 7.4 16.6 16.5 16.6 9.2 0 16.6-7.5 16.6-16.6 0-9.2-7.4-16.6-16.6-16.6-9.1 0-16.5 7.4-16.5 16.6zm-26 56.7c9.1-3.4 18.2-3 27.4 0-2.5-13.2-7.5-26.5-13.7-39.7-6.4 13.2-10.4 26.5-13.7 39.7zm17.5 31.4c13.3 0 26.8-2 38.7-6.4 1.9 6.2 4.8 12.2 8.4 18-9.4 6.8-27.3 12.2-46.3 12.4-19.3 0.2-38.9-4.6-50.8-12.6 3.9-6.3 7-12.6 9.1-19 12.1 5.3 26.4 7.6 40.9 7.6zm115.1 69.7c2.6 14.1-0.8 25.6-10 36.8-62.4-28.8-157.7-55.2-226.6-60.8-2.7-13.8 1.1-25 10-36.3 62.5 31.6 158.8 53.4 226.6 60.3zm0-24c-7.3 0.6-14.8 1.4-22.6 2.5-18.5-2.7-38.4-6.3-58.7-10.7 26-8.2 50.5-17.6 71.3-28.1 8.9 11.3 12.7 22.5 10 36.3zm-153.4 32.8c-26.7 8.5-51.9 18.1-73.3 28-9.1-11.2-12.5-22.7-9.9-36.8 7.3-0.7 14.9-1.7 22.8-2.7 19 2.6 39.5 6.6 60.4 11.5z"/>
	</g>
	<path id="1" class="s1" d="m237.1 207v195h83.8v-292.8l-55.3 0.1q-4.7 13.5-12.2 22.7-7.5 9.3-18 14.5-10.5 5.3-20 7.8-9.5 2.5-23.5 4.5v53.2z"/>
</svg>