<svg version="1.2" xmlns="http://www.w3.org/2000/svg" viewBox="0 0 512 512" width="512" height="512">
	<title>small-fire-svg</title>
	<style>
		.s0 { fill: #000000 } 
		.s1 { fill: #ff0000;stroke: #0b550d;stroke-linecap: round;stroke-linejoin: bevel;stroke-width: 10 } 
	</style>
	<g id="Layer">
		<path id="Layer" fill-rule="evenodd" class="s0" d="m253.3 112.6c-17.2 177.6 198.2 174.4 119.2-11.5q0-1.1 0-2.2c153.6 149.2 169 359.4 14.2 394.1-1.2-0.1-11.6-0.1-25.2-0.1 41.9-21.2 69.7-55.2 84-93.5 19.1-51.6 14.4-110.7-11.1-156.5l-13.5-24-3.5 27.5c-5.1 34.9-22.2 68.8-43.8 91.7-39.3-54.3-93.8-87.2-174.6-112.7l-5.3-1.8-23.2-9.9 13.9 19.3 4.1 6.4c56 86.8 45.5 142.5 26.9 167-9.3 12.2-20.8 15.7-26.3 14.6-2.7-0.5-4.3-1.1-5.9-4.1-1.5-3-2.5-8.6-1.1-16.9l2.9-16.9-15.8 7c-64.9 27.9-61.3 86.3-32.8 103.2-23.6-0.1-39.8-0.2-41.2-0.6-65-49-101.2-139.3-51.5-265.7-5.6 98.4 73.2 186.1 108.3 126.8 62.2-105.1-173.7-225.8 10.2-332.5-41.8 89.1 49.4 191.8 91.1 91.3zm100.5 268.7c9.1 16.5 12.3 34.8 5.8 53.7-6.4 19-22.8 39.3-53.7 57.8v0.2c-30.3 0.1-62.1 0.2-95.2 0.3 21.8-9.1 41.8-24.7 56.6-43.7 15.3-19.4 25.2-42.5 24.6-66.5-0.5-17.8-9.3-35-22.8-50.9 35 1.4 69.2 21.1 84.7 49.1z"/>
		<path id="3" class="s1" aria-label="3"  d="m251 407q53.8 0 83.3-22.5 29.5-22.5 29.5-55.5 0-37.5-18.8-57.5-18.7-20.3-50.8-22.8 59.5-4.9 59.5-60.5 0.1-18.4-5.7-33.2-5.5-14.7-17.5-26.2-11.8-11.5-32-17.8-20-6.2-47.5-6.2-40.5 0-76 22.7v41q17.5-13.2 39.5-13.2 22.8 0 36.5 10.5 13.8 10.2 13.8 32.7 0 23-13.6 31.3-13.4 8-41 8h-3.2v34.2h6.5q51.3 0 51.3 43.3 0 8.4-2 14.9-1.8 6.5-6.8 13.1-5 6.5-15.5 10.2-10.5 3.5-26 3.5-22 0-39.5-13.3v41.1q35 22.2 76 22.2z"/>
	</g>
</svg>