<svg version="1.2" xmlns="http://www.w3.org/2000/svg" viewBox="0 0 512 512" width="512" height="512">
	<title>terror-svg</title>
	<style>
		.s0 { fill: #ffffff } 
		.s1 { fill: #ff0000;stroke: #0b550d;stroke-linecap: round;stroke-linejoin: bevel;stroke-width: 10 } 
	</style>
	<g id="Layer">
		<path id="Layer" fill-rule="evenodd" class="s0" d="m250.7 20.9c45.4-0.3 90.8 19.7 116.3 61.5 25.9 42.4 37.9 85.4 34.8 117-1.5 15.9-6.5 28.7-15 38-8.4 9.4-20.3 15.7-37.4 17.8l-10.9 1.2 3 10.6c2.3 8.2 3.7 16.2 3.7 24.9 0 27-4.3 79.3-18.5 123.5-7.1 22.1-16.7 42.2-28.8 56.1-12 14-25.8 21.9-43.8 21.9-18 0-31.8-7.9-43.8-21.9-12.1-13.9-21.7-34-28.8-56.1-14.2-44.2-18.5-96.5-18.5-123.5 0-8.7 1.4-16.7 3.8-24.9l3-10.7-11-1.2c-17.5-1.8-29.3-8.3-37.6-18-8.3-9.7-13.2-23.2-14.7-39.5-2.9-32.7 8.7-76 31.3-115.4 23.1-40.3 67.4-61 112.8-61.3 0 0 0.1 0 0.1 0zm-121.3 168.6c0 24.4 19.6 44.1 44 44.1 24.5 0 44.1-19.7 44.1-44.1 0-24.4-19.6-44-44.1-44-24.4 0-44 19.6-44 44zm161.4 0c0 24.4 19.6 44.1 44 44.1 24.5 0 44.1-19.7 44.1-44.1 0-24.4-19.6-44-44.1-44-24.4 0-44 19.6-44 44zm-106.6 2.9c0 6.6-5.2 11.8-11.8 11.8-6.6 0-11.8-5.2-11.8-11.8 0-6.6 5.2-11.8 11.8-11.8 6.6 0 11.8 5.1 11.8 11.8zm164.2 0c0 6.6-5.2 11.8-11.8 11.8-6.6 0-11.8-5.2-11.8-11.8 0-6.6 5.2-11.8 11.8-11.8 6.6 0 11.8 5.1 11.8 11.8zm-162.1 118.7c0 19.9 2.5 56.2 11.5 88.6 4.6 16.3 10.7 31.6 19.7 43.6 9.1 12 22 20.8 37.7 20.8 15.7 0 28.6-8.8 37.6-20.8 9.1-12 15.2-27.3 19.7-43.6 9.1-32.4 11.6-68.7 11.6-88.6 0-42.6-30.2-78.6-68.9-78.6-38.8 0-68.9 36-68.9 78.6zm111.9-30.9h-86.1c8.9-17.6 25.2-29 43.1-29 17.9 0 34.1 11.4 43 29zm-15.8 144.9c-1.4 2.5-2.9 4.9-4.5 7-6.8 9-13.7 13.3-22.7 13.3-9.1 0-16-4.3-22.8-13.3-1.5-2.1-3-4.5-4.5-7z"/>
	</g>
	<path id="3" class="s1" d="m251 407q53.8 0 83.3-22.5 29.5-22.5 29.5-55.5 0-37.5-18.8-57.5-18.7-20.3-50.8-22.8 59.5-4.9 59.5-60.5 0.1-18.4-5.7-33.2-5.5-14.7-17.5-26.2-11.8-11.5-32-17.8-20-6.2-47.5-6.2-40.5 0-76 22.7v41q17.5-13.2 39.5-13.2 22.8 0 36.5 10.5 13.8 10.2 13.8 32.7 0 23-13.6 31.3-13.4 8-41 8h-3.2v34.2h6.5q51.3 0 51.3 43.3 0 8.4-2 14.9-1.8 6.5-6.8 13.1-5 6.5-15.5 10.2-10.5 3.5-26 3.5-22 0-39.5-13.3v41.1q35 22.2 76 22.2z"/>
</svg>